<svg width="773" height="773" viewBox="0 0 773 773" fill="none" xmlns="http://www.w3.org/2000/svg">
<g clip-path="url(#clip0_4085_464)">
<path d="M606.926 0H166.074C74.354 0 0 74.354 0 166.074V606.926C0 698.646 74.354 773 166.074 773H606.926C698.646 773 773 698.646 773 606.926V166.074C773 74.354 698.646 0 606.926 0Z" fill="url(#paint0_linear_4085_464)"/>
<path d="M440.771 188.132C422.486 181.289 402.241 181.289 383.956 188.132L253.101 237.096C245.635 239.887 239.213 244.815 234.683 251.229C230.153 257.642 227.728 265.242 227.727 273.024V338.976C236.132 336.068 244.924 334.1 254.104 333.074V280.363L399.175 340.85V521.744L410.834 533.087C421.06 533.275 431.227 531.532 440.771 527.955L571.652 478.991C579.114 476.195 585.53 471.266 590.055 464.853C594.579 458.439 597.001 450.842 597 443.063V273.024C597.001 265.245 594.579 257.648 590.055 251.234C585.53 244.821 579.114 239.891 571.652 237.096L440.771 188.132ZM393.425 212.075C405.615 207.513 419.112 207.513 431.302 212.075L555.747 258.653L504.392 280.055L356.92 225.753L393.425 212.075ZM425.552 340.85L570.623 280.363V443.063C570.626 445.657 569.821 448.19 568.314 450.33C566.808 452.469 564.67 454.114 562.183 455.048L431.302 504.012C429.42 504.73 427.504 505.329 425.552 505.808V340.85ZM412.363 318.421L268.98 258.627L319.966 239.56L469.443 294.631L412.363 318.421ZM267.292 537.681C288.024 537.681 307.173 531.009 322.577 519.794L389.838 585.233C391.062 586.426 392.516 587.373 394.117 588.019C395.717 588.666 397.433 588.999 399.166 589C400.899 589.001 402.615 588.67 404.216 588.026C405.818 587.382 407.273 586.437 408.499 585.246C409.725 584.055 410.698 582.64 411.363 581.083C412.027 579.526 412.37 577.857 412.371 576.171C412.372 574.485 412.032 572.815 411.37 571.257C410.708 569.699 409.737 568.283 408.512 567.09L341.252 501.651C353.702 485.452 360.168 465.639 359.602 445.419C359.037 425.2 351.474 405.758 338.137 390.242C324.8 374.726 306.47 364.044 286.116 359.925C265.762 355.807 244.575 358.493 225.985 367.549C207.396 376.605 192.492 391.5 183.688 409.824C174.883 428.147 172.693 448.825 177.473 468.511C182.252 488.196 193.721 505.735 210.022 518.289C226.323 530.842 246.502 537.675 267.292 537.681ZM267.292 512.018C249.803 512.018 233.031 505.259 220.664 493.227C208.298 481.196 201.35 464.877 201.35 447.862C201.35 430.847 208.298 414.528 220.664 402.497C233.031 390.465 249.803 383.706 267.292 383.706C284.781 383.706 301.553 390.465 313.92 402.497C326.286 414.528 333.233 430.847 333.233 447.862C333.233 464.877 326.286 481.196 313.92 493.227C301.553 505.259 284.781 512.018 267.292 512.018Z" fill="#C2CCFF"/>
<path d="M280.622 437.651L307 448.5L280.631 459.34L269.5 485L258.36 459.34L232 448.5L258.36 437.66L269.491 412L280.622 437.651Z" fill="#C2CCFF"/>
</g>
<defs>
<linearGradient id="paint0_linear_4085_464" x1="0" y1="0" x2="773" y2="773" gradientUnits="userSpaceOnUse">
<stop stop-color="#3858FF"/>
<stop offset="1" stop-color="#000B59"/>
</linearGradient>
<clipPath id="clip0_4085_464">
<rect width="773" height="773" fill="white"/>
</clipPath>
</defs>
</svg>
